M48
; DRILL file {KiCad (5.1.0)-1} date 5/7/2019 12:55:52 AM
; FORMAT={-:-/ absolute / inch / decimal}
; #@! TF.CreationDate,2019-05-07T00:55:52+02:00
; #@! TF.GenerationSoftware,Kicad,Pcbnew,(5.1.0)-1
; #@! TF.FileFunction,Plated,1,2,PTH
FMAT,2
INCH
T1C0.0118
T2C0.0157
T3C0.0236
T4C0.0315
T5C0.0335
T6C0.0394
T7C0.0433
T8C0.0866
T9C0.1260
%
G90
G05
T1
X0.914Y-2.136
X0.914Y-2.556
X0.9154Y-1.728
X0.916Y-1.296
X0.946Y-1.932
X0.946Y-2.346
X0.9562Y-1.5154
X0.965Y-1.46
X0.97Y-1.035
X0.98Y-2.515
X0.985Y-2.385
X1.02Y-1.465
X1.027Y-1.1911
X1.035Y-2.495
X1.064Y-1.65
X1.064Y-2.478
X1.0649Y-2.5485
X1.1024Y-2.5124
X1.124Y-2.002
X1.125Y-2.36
X1.148Y-1.184
X1.2106Y-3.2264
X1.222Y-1.047
X1.2244Y-3.6693
X1.237Y-1.076
X1.241Y-1.027
X1.2461Y-3.1181
X1.2539Y-3.439
X1.285Y-1.035
X1.2904Y-3.4173
X1.313Y-2.8543
X1.3228Y-2.813
X1.337Y-1.324
X1.3406Y-2.7618
X1.3425Y-2.7264
X1.3545Y-2.9687
X1.3573Y-2.8125
X1.384Y-1.323
X1.3927Y-3.0286
X1.429Y-1.322
X1.43Y-2.605
X1.4331Y-3.0906
X1.473Y-1.325
X1.501Y-1.322
X1.5016Y-3.1289
X1.5054Y-3.0376
X1.51Y-3.51
X1.5112Y-3.3554
X1.515Y-3.245
X1.52Y-2.61
X1.542Y-1.326
X1.5459Y-2.6005
X1.5495Y-2.8882
X1.565Y-2.5689
X1.5886Y-2.7362
X1.595Y-2.97
X1.596Y-1.087
X1.596Y-1.171
X1.598Y-1.371
X1.598Y-1.402
X1.601Y-1.429
X1.601Y-1.463
X1.602Y-1.488
X1.602Y-1.514
X1.604Y-1.576
X1.606Y-1.544
X1.607Y-1.133
X1.6142Y-2.7147
X1.615Y-1.152
X1.6181Y-3.1831
X1.622Y-3.969
X1.624Y-1.424
X1.627Y-1.494
X1.627Y-1.531
X1.6275Y-2.8872
X1.628Y-1.461
X1.644Y-1.14
X1.648Y-1.443
X1.653Y-1.492
X1.672Y-3.97
X1.6772Y-3.7165
X1.6949Y-3.2854
X1.696Y-1.808
X1.7025Y-3.0602
X1.703Y-3.3118
X1.704Y-1.51
X1.7065Y-2.8872
X1.7106Y-2.5196
X1.7146Y-2.4724
X1.7306Y-1.2426
X1.7559Y-3.4469
X1.764Y-3.0567
X1.7657Y-2.8878
X1.7756Y-3.3238
X1.7894Y-3.2598
X1.8012Y-2.5315
X1.815Y-2.561
X1.8189Y-3.3238
X1.8228Y-1.48
X1.8333Y-1.787
X1.8405Y-2.9872
X1.8437Y-2.7425
X1.8512Y-3.6705
X1.8545Y-3.6418
X1.864Y-1.294
X1.864Y-1.626
X1.864Y-1.922
X1.864Y-2.22
X1.8775Y-1.1972
X1.8937Y-2.2815
X1.9048Y-1.7339
X1.9048Y-2.025
X1.905Y-1.4343
X1.9277Y-3.7982
X1.9495Y-2.7752
X1.9536Y-2.748
X1.9587Y-3.3701
X1.96Y-1.14
X1.96Y-3.765
X1.9626Y-3.0079
X1.9703Y-1.6472
X1.9768Y-2.3174
X1.9866Y-2.2756
X1.99Y-1.485
X1.99Y-1.775
X1.99Y-2.08
X1.9941Y-3.5827
X1.995Y-1.885
X2.0Y-1.575
X2.0Y-2.175
X2.002Y-2.248
X2.025Y-1.335
X2.0373Y-1.0312
X2.0431Y-1.2005
X2.055Y-3.55
X2.0672Y-2.5344
X2.0709Y-3.0827
X2.0728Y-2.9622
X2.0745Y-1.7245
X2.0827Y-2.8465
X2.0866Y-2.5709
X2.0866Y-2.7283
X2.0896Y-1.9826
X2.0906Y-2.3031
X2.094Y-1.41
X2.0965Y-3.063
X2.11Y-1.855
X2.1112Y-2.815
X2.1122Y-2.2461
X2.1201Y-2.7303
X2.1201Y-2.9425
X2.125Y-3.7978
X2.1309Y-2.2697
X2.1496Y-2.9134
X2.16Y-1.62
X2.1615Y-1.6475
X2.1714Y-1.7521
X2.175Y-1.57
X2.1752Y-2.8524
X2.187Y-2.8878
X2.2303Y-1.4606
X2.2421Y-2.4577
X2.2541Y-2.4945
X2.265Y-2.01
X2.2697Y-2.3524
X2.27Y-4.0
X2.2717Y-2.5157
X2.2897Y-1.7038
X2.3051Y-2.5154
X2.32Y-4.0
X2.3209Y-2.9616
X2.3239Y-1.3098
X2.3386Y-3.187
X2.3435Y-2.937
X2.3636Y-1.7038
X2.3658Y-2.6595
X2.3708Y-2.6866
X2.378Y-4.012
X2.379Y-1.4197
X2.3799Y-2.7126
X2.3799Y-2.8524
X2.3817Y-2.637
X2.3878Y-3.2126
X2.3893Y-2.5843
X2.3927Y-2.6117
X2.395Y-2.0
X2.4Y-1.705
X2.4003Y-1.6208
X2.4006Y-1.811
X2.4112Y-3.1735
X2.4134Y-2.7421
X2.4225Y-4.0175
X2.4231Y-3.605
X2.4232Y-2.7697
X2.4311Y-2.8878
X2.4469Y-1.9567
X2.448Y-2.2177
X2.4493Y-3.63
X2.45Y-2.045
X2.455Y-1.72
X2.458Y-1.363
X2.46Y-3.8
X2.4636Y-2.3406
X2.47Y-1.595
X2.47Y-4.015
X2.4735Y-3.655
X2.4862Y-3.1732
X2.5007Y-3.6776
X2.5129Y-3.8031
X2.5138Y-3.5492
X2.5201Y-3.9999
X2.5295Y-2.1378
X2.5295Y-2.2953
X2.5374Y-2.376
X2.545Y-1.6191
X2.555Y-1.95
X2.565Y-3.55
X2.565Y-1.295
X2.5654Y-3.339
X2.5668Y-1.5992
X2.5741Y-1.2441
X2.575Y-1.34
X2.595Y-1.295
X2.595Y-1.7672
X2.616Y-1.551
X2.6161Y-1.4134
X2.6188Y-4.0188
X2.628Y-2.6181
X2.628Y-2.7402
X2.63Y-3.35
X2.64Y-1.025
X2.64Y-3.93
X2.6437Y-3.9685
X2.645Y-1.315
X2.665Y-1.245
X2.6673Y-2.5984
X2.6673Y-2.752
X2.6795Y-1.6002
X2.68Y-1.025
X2.7163Y-3.525
X2.73Y-1.025
X2.73Y-3.44
X2.739Y-3.723
X2.745Y-3.545
X2.75Y-1.73
X2.75Y-1.955
X2.761Y-3.934
X2.7645Y-1.6027
X2.765Y-1.025
X2.777Y-0.9439
X2.781Y-3.549
X2.79Y-2.91
X2.79Y-3.35
X2.8051Y-2.6299
X2.808Y-3.7234
X2.82Y-3.51
X2.829Y-1.739
X2.8327Y-2.82
X2.8346Y-2.6299
X2.841Y-1.961
X2.8449Y-1.32
X2.86Y-3.5174
X2.8652Y-2.9752
X2.8701Y-2.6299
X2.873Y-3.937
X2.874Y-2.078
X2.88Y-1.445
X2.88Y-3.31
X2.885Y-1.945
X2.893Y-3.7234
X2.9Y-2.97
X2.9055Y-2.6329
X2.914Y-1.438
X2.915Y-1.33
X2.9528Y-1.9508
X2.956Y-2.049
X2.972Y-3.7234
X2.9866Y-1.325
X3.03Y-3.94
X3.0413Y-2.0413
X3.07Y-1.945
X3.09Y-2.015
X3.0945Y-2.4094
X3.1Y-1.11
X3.105Y-1.655
X3.1063Y-1.9587
X3.11Y-3.89
X3.111Y-2.314
X3.115Y-1.295
X3.1302Y-3.8445
X3.144Y-2.554
X3.156Y-2.646
X3.1809Y-1.8235
X3.1831Y-1.3681
X3.1839Y-1.1642
X3.1949Y-2.4035
X3.202Y-2.0229
X3.225Y-1.865
X3.2343Y-1.1614
X3.2343Y-1.3681
X3.2467Y-1.8128
X3.2835Y-1.3681
X3.2839Y-1.1677
X3.2933Y-2.0256
X3.2966Y-1.8131
X3.3327Y-1.3661
X3.3327Y-1.8169
X3.3339Y-1.1646
X3.3621Y-1.37
X3.382Y-1.424
X3.3858Y-1.4823
X3.419Y-1.551
X3.421Y-1.381
X3.43Y-1.442
X3.478Y-2.642
X3.484Y-2.514
X3.487Y-2.573
X3.52Y-1.498
X3.572Y-2.555
X3.576Y-2.499
X3.61Y-2.636
X3.659Y-1.41
X3.675Y-2.375
X3.6752Y-0.7244
X3.689Y-2.535
X3.71Y-1.23
X3.71Y-2.375
X3.717Y-1.508
X3.719Y-2.625
X3.72Y-1.45
X3.736Y-2.566
X3.745Y-2.375
X3.765Y-1.445
X3.785Y-2.375
X3.83Y-2.668
X4.0177Y-1.3051
X4.103Y-1.734
X4.261Y-4.0617
X4.321Y-1.923
X4.3757Y-2.5595
X4.3983Y-2.6407
X4.4661Y-2.4949
X4.5024Y-2.5461
T2
X0.78Y-1.26
X0.78Y-1.3
X0.78Y-1.34
X0.78Y-1.7
X0.78Y-1.74
X0.78Y-1.78
X0.78Y-2.12
X0.78Y-2.16
X0.78Y-2.2
X0.78Y-2.56
X0.78Y-2.6
X0.78Y-2.64
X0.78Y-3.08
X0.78Y-3.42
X0.78Y-3.5
X0.86Y-0.94
X0.86Y-1.0
X0.88Y-2.56
X0.88Y-2.6
X0.88Y-2.64
X0.88Y-3.08
X0.88Y-3.5
X0.9367Y-0.9945
X0.94Y-0.94
X0.9744Y-0.6496
X1.025Y-0.6496
X1.36Y-1.1
X1.36Y-1.16
X1.36Y-1.22
X1.36Y-1.26
X1.36Y-1.4
X1.36Y-1.46
X1.36Y-1.52
X1.36Y-1.56
X1.36Y-1.68
X1.36Y-1.74
X1.36Y-1.8
X1.36Y-1.84
X1.36Y-1.98
X1.36Y-2.04
X1.36Y-2.1
X1.36Y-2.14
X1.42Y-1.1
X1.42Y-1.16
X1.42Y-1.22
X1.42Y-1.26
X1.42Y-1.4
X1.42Y-1.46
X1.42Y-1.52
X1.42Y-1.56
X1.42Y-1.68
X1.42Y-1.74
X1.42Y-1.8
X1.42Y-1.84
X1.42Y-1.98
X1.42Y-2.04
X1.42Y-2.1
X1.42Y-2.14
X1.48Y-1.1
X1.48Y-1.16
X1.48Y-1.22
X1.48Y-1.26
X1.48Y-1.4
X1.48Y-1.46
X1.48Y-1.52
X1.48Y-1.56
X1.48Y-1.68
X1.48Y-1.74
X1.48Y-1.8
X1.48Y-1.84
X1.48Y-1.98
X1.48Y-2.04
X1.48Y-2.1
X1.48Y-2.14
X1.54Y-1.1
X1.54Y-1.16
X1.54Y-1.22
X1.54Y-1.26
X1.54Y-1.4
X1.54Y-1.46
X1.54Y-1.52
X1.54Y-1.56
X1.54Y-1.68
X1.54Y-1.74
X1.54Y-1.8
X1.54Y-1.84
X1.54Y-1.98
X1.54Y-2.04
X1.54Y-2.1
X1.54Y-2.14
X1.84Y-2.38
X1.9Y-2.44
X1.9783Y-0.6614
X2.6303Y-3.8591
X2.6311Y-3.7756
X2.6315Y-3.8185
X2.7045Y-3.9342
X2.7417Y-3.776
X2.7453Y-3.8606
X2.7472Y-3.8185
X2.8193Y-3.9344
X2.8602Y-3.8177
X2.8614Y-3.8614
X2.8618Y-3.7748
X2.9657Y-3.9339
X2.98Y-3.86
X2.9866Y-3.8179
X2.987Y-3.7785
X3.1142Y-3.9344
X3.506Y-2.0657
X3.5388Y-2.0328
X3.59Y-2.022
X3.631Y-2.022
X3.696Y-2.022
X4.0177Y-1.1909
X4.02Y-2.022
X4.1043Y-1.1909
X4.2815Y-1.7106
X4.3976Y-1.7087
X0.6437Y-0.7087
X0.6627Y-0.6627
X0.6627Y-0.7546
X0.7087Y-0.6437
X0.7087Y-0.7736
X0.7546Y-0.6627
X0.7546Y-0.7546
X0.7736Y-0.7087
X4.3445Y-0.7087
X4.3635Y-0.6627
X4.3635Y-0.7546
X4.4094Y-0.6437
X4.4094Y-0.7736
X4.4554Y-0.6627
X4.4554Y-0.7546
X4.4744Y-0.7087
X0.6437Y-4.4094
X0.6627Y-4.3635
X0.6627Y-4.4554
X0.7087Y-4.3445
X0.7087Y-4.4744
X0.7546Y-4.3635
X0.7546Y-4.4554
X0.7736Y-4.4094
X4.3445Y-4.4094
X4.3635Y-4.3635
X4.3635Y-4.4554
X4.4094Y-4.3445
X4.4094Y-4.4744
X4.4554Y-4.3635
X4.4554Y-4.4554
X4.4744Y-4.4094
T4
X4.1729Y-1.5428
X4.2714Y-1.5428
T5
X3.9094Y-4.3637
X4.1063Y-4.3637
T6
X3.8Y-2.7618
X3.8Y-2.8618
X3.8Y-2.9618
X3.8Y-3.0618
X3.8Y-3.1618
X3.8Y-3.2618
X3.8Y-3.3618
X3.8Y-3.4618
X3.8Y-3.5618
X3.8Y-3.6618
X3.8Y-3.7618
X3.8Y-3.8618
X1.3154Y-0.9
X1.3699Y-0.7882
X1.4244Y-0.9
X1.4789Y-0.7882
X1.5335Y-0.9
X1.588Y-0.7882
X1.6425Y-0.9
X1.697Y-0.7882
X1.7516Y-0.9
X1.8061Y-0.7882
X1.8606Y-0.9
X1.9152Y-0.7882
X1.9697Y-0.9
X2.0242Y-0.7882
X2.0787Y-0.9
X2.1333Y-0.7882
X2.1878Y-0.9
X2.2423Y-0.7882
X2.2969Y-0.9
X2.3514Y-0.7882
X2.4059Y-0.9
X2.4604Y-0.7882
X2.515Y-0.9
X2.5695Y-0.7882
X2.624Y-0.9
X2.6785Y-0.7882
X2.7331Y-0.9
X2.7876Y-0.7882
X2.8421Y-0.9
X2.8967Y-0.7882
X2.9512Y-0.9
X3.0057Y-0.7882
X3.0602Y-0.9
X3.1148Y-0.7882
X3.1693Y-0.9
X3.2238Y-0.7882
X3.2783Y-0.9
X3.9Y-2.7618
X3.9Y-2.8618
X3.9Y-2.9618
X3.9Y-3.0618
X3.9Y-3.1618
X3.9Y-3.2618
X3.9Y-3.3618
X3.9Y-3.4618
X3.9Y-3.5618
X3.9Y-3.6618
X3.9Y-3.7618
X3.9Y-3.8618
X4.0Y-2.7618
X4.0Y-2.8618
X4.0Y-2.9618
X4.0Y-3.0618
X4.0Y-3.1618
X4.0Y-3.2618
X4.0Y-3.3618
X4.0Y-3.4618
X4.0Y-3.5618
X4.0Y-3.6618
X4.0Y-3.7618
X4.0Y-3.8618
X4.3Y-2.7618
X4.3Y-2.8618
X4.3Y-2.9618
X4.3Y-3.0618
X4.3Y-3.1618
X4.3Y-3.2618
X4.3Y-3.3618
X4.3Y-3.4618
X4.3Y-3.5618
X4.3Y-3.6618
X4.3Y-3.7618
X4.3Y-3.8618
X3.6Y-2.7618
X3.6Y-2.8618
X3.6Y-2.9618
X3.6Y-3.0618
X3.6Y-3.1618
X3.6Y-3.2618
X3.6Y-3.3618
X3.6Y-3.4618
X3.6Y-3.5618
X3.6Y-3.6618
X3.6Y-3.7618
X3.6Y-3.8618
X4.1Y-2.7618
X4.1Y-2.8618
X4.1Y-2.9618
X4.1Y-3.0618
X4.1Y-3.1618
X4.1Y-3.2618
X4.1Y-3.3618
X4.1Y-3.4618
X4.1Y-3.5618
X4.1Y-3.6618
X4.1Y-3.7618
X4.1Y-3.8618
X2.5437Y-4.2126
X2.5982Y-4.3244
X2.6528Y-4.2126
X2.7073Y-4.3244
X2.7618Y-4.2126
X2.8163Y-4.3244
X2.8709Y-4.2126
X2.9254Y-4.3244
X2.9799Y-4.2126
X3.0344Y-4.3244
X3.089Y-4.2126
X3.1435Y-4.3244
X3.198Y-4.2126
X3.2526Y-4.3244
X3.3071Y-4.2126
X4.2Y-2.7567
X4.2Y-2.8567
X4.2Y-2.9567
X4.2Y-3.0567
X4.2Y-3.1567
X4.2Y-3.2567
X4.2Y-3.3567
X4.2Y-3.4567
X4.2Y-3.5567
X4.2Y-3.6567
X4.2Y-3.7567
X4.2Y-3.8567
X1.3189Y-2.3764
X1.3189Y-2.4764
X1.4189Y-2.3764
X1.4189Y-2.4764
X1.5189Y-2.3764
X1.5189Y-2.4764
X4.4Y-2.7571
X4.4Y-2.8571
X4.4Y-2.9571
X4.4Y-3.0571
X4.4Y-3.1571
X4.4Y-3.2571
X4.4Y-3.3571
X4.4Y-3.4571
X4.4Y-3.5571
X4.4Y-3.6571
X4.4Y-3.7571
X4.4Y-3.8571
X1.2567Y-4.2126
X1.3112Y-4.3244
X1.3657Y-4.2126
X1.4203Y-4.3244
X1.4748Y-4.2126
X1.5293Y-4.3244
X1.5839Y-4.2126
X1.6384Y-4.3244
X1.6929Y-4.2126
X3.7Y-2.7618
X3.7Y-2.8618
X3.7Y-2.9618
X3.7Y-3.0618
X3.7Y-3.1618
X3.7Y-3.2618
X3.7Y-3.3618
X3.7Y-3.4618
X3.7Y-3.5618
X3.7Y-3.6618
X3.7Y-3.7618
X3.7Y-3.8618
T7
X0.7874Y-2.7154
X0.7874Y-2.8154
X0.7874Y-2.9154
X0.7874Y-1.8472
X0.7874Y-1.9472
X0.7874Y-2.0472
X0.7874Y-0.9811
X0.7874Y-1.0811
X0.7874Y-1.1811
X0.7874Y-3.1484
X0.7874Y-3.2484
X0.7874Y-3.3484
X0.7874Y-2.2803
X0.7874Y-2.3803
X0.7874Y-2.4803
X0.7874Y-1.4142
X0.7874Y-1.5142
X0.7874Y-1.6142
X0.7874Y-3.5795
X0.7874Y-3.6795
X0.7874Y-3.7795
T8
X0.7087Y-0.7087
X4.4094Y-0.7087
X0.7087Y-4.4094
X4.4094Y-4.4094
T9
X1.0469Y-0.8882
X3.5469Y-0.8882
X2.2699Y-4.2244
X3.5809Y-4.2244
X0.9827Y-4.2244
X1.9669Y-4.2244
T3
G00X3.8701Y-4.4838
M15
G01X3.8701Y-4.4562
M16
G05
G00X4.1457Y-4.4562
M15
G01X4.1457Y-4.4838
M16
G05
T0
M30
